# xmcd CD database file
#
# Track frame offsets:
#	150
#	12908
#	26553
#	54551
#	68104
#	78121
#	93968
#	104132
#	116018
#	128543
#	139724
#	151896
#	164088
#	174506
#	184721
#	197175
#	210785
#	220424
#	232749
#	244088
#	258650
#	271915
#	283444
#	296968
#	309473
#
# Disc length: 4304 seconds
#
# Revision: 0
# Processed by: cddbd v1.5.2PL0 Copyright (c) Steve Scherf et al.
# Submitted via: CDex 1.51
#
DISCID=6e10ce19
DTITLE=B.B. KING - The Kent Years 1958-1962
DYEAR=2013
DGENRE=Blues
TTITLE0=Everyday I Have The Blues
TTITLE1=Three O` Clock Blues
TTITLE2=Sweet Sixteen Pt. 1 and 2
TTITLE3=Sweet Little Angel
TTITLE4=Bad Luck Soul
TTITLE5=Your Letter
TTITLE6=Peace Of Mind
TTITLE7=You Know I Go For You
TTITLE8=Why Do Everything Happen To Me
TTITLE9=Days Of Old
TTITLE10=Don`t Look Now, But You Got The Blues
TTITLE11=Worry, Worry, Worry
TTITLE12=I Am
TTITLE13=Come By Here
TTITLE14=A Lonely Lover`s Plea
TTITLE15=The Woman I Love
TTITLE16=Time To Say Goodbye
TTITLE17=Sugar Mama
TTITLE18=Mean Old Frisco
TTITLE19=I`ve Got A Right To Love My Baby
TTITLE20=Blind Love
TTITLE21=Did You Ever Love A Woman
TTITLE22=Partin` Time
TTITLE23=Good Man Gone Bad
TTITLE24=Crying Won`t Help You
EXTD=YEAR: 2013
EXTT0=
EXTT1=
EXTT2=
EXTT3=
EXTT4=
EXTT5=
EXTT6=
EXTT7=
EXTT8=
EXTT9=
EXTT10=
EXTT11=
EXTT12=
EXTT13=
EXTT14=
EXTT15=
EXTT16=
EXTT17=
EXTT18=
EXTT19=
EXTT20=
EXTT21=
EXTT22=
EXTT23=
EXTT24=
PLAYORDER=
